<svg width="900" height="980" viewBox="0 0 900 980" fill="none" xmlns="http://www.w3.org/2000/svg">
  <rect width="900" height="980" rx="60" fill="#07140D"/>
  <rect x="18" y="18" width="864" height="944" rx="42" stroke="url(#paint0_linear)" stroke-width="4"/>
  <circle cx="450" cy="300" r="120" fill="url(#paint1_radial)"/>
  <path d="M290 660C290 562.797 368.797 484 466 484H434C531.203 484 610 562.797 610 660V692H290V660Z" fill="#10331E"/>
  <path d="M352 650C352 583.174 406.174 529 473 529H427C493.826 529 548 583.174 548 650V692H352V650Z" fill="#59FF62" fill-opacity="0.25"/>
  <rect x="160" y="760" width="580" height="84" rx="24" fill="#0C2016"/>
  <text x="450" y="815" fill="#F3FFF4" font-family="Arial, sans-serif" font-size="42" font-weight="700" text-anchor="middle">REPLACE WITH YOUR PHOTO</text>
  <text x="450" y="875" fill="#32D9FF" font-family="Arial, sans-serif" font-size="26" letter-spacing="6" text-anchor="middle">assets/avatar-placeholder.svg</text>
  <defs>
    <linearGradient id="paint0_linear" x1="65" y1="50" x2="835" y2="930" gradientUnits="userSpaceOnUse">
      <stop stop-color="#59FF62"/>
      <stop offset="1" stop-color="#32D9FF"/>
    </linearGradient>
    <radialGradient id="paint1_radial" cx="0" cy="0" r="1" gradientUnits="userSpaceOnUse" gradientTransform="translate(450 300) rotate(90) scale(120)">
      <stop stop-color="#32D9FF"/>
      <stop offset="1" stop-color="#59FF62" stop-opacity="0.1"/>
    </radialGradient>
  </defs>
</svg>
