<svg width="1600" height="1000" viewBox="0 0 1600 1000" fill="none" xmlns="http://www.w3.org/2000/svg">
  <rect width="1600" height="1000" rx="48" fill="#07140D"/>
  <rect x="24" y="24" width="1552" height="952" rx="28" stroke="url(#paint0_linear)" stroke-width="4"/>
  <rect x="108" y="108" width="1384" height="784" rx="32" fill="#091710"/>
  <rect x="160" y="170" width="240" height="144" rx="26" fill="#0F281C"/>
  <rect x="438" y="170" width="240" height="144" rx="26" fill="#0F281C"/>
  <rect x="716" y="170" width="240" height="144" rx="26" fill="#0F281C"/>
  <rect x="994" y="170" width="240" height="144" rx="26" fill="#0F281C"/>
  <rect x="1272" y="170" width="168" height="144" rx="26" fill="#0F281C"/>
  <rect x="160" y="364" width="618" height="420" rx="30" fill="#0F281C"/>
  <rect x="816" y="364" width="624" height="186" rx="30" fill="#0F281C"/>
  <rect x="816" y="588" width="624" height="196" rx="30" fill="#0F281C"/>
  <polyline points="906,676 1010,618 1090,650 1180,548 1260,580 1350,520" stroke="#59FF62" stroke-width="12" stroke-linecap="round" stroke-linejoin="round"/>
  <text x="160" y="856" fill="#F3FFF4" font-family="Arial, sans-serif" font-size="70" font-weight="700">Analytics Dashboard</text>
  <text x="160" y="914" fill="#9CC5A5" font-family="Arial, sans-serif" font-size="30">Use your real dashboard screenshot when ready.</text>
  <defs>
    <linearGradient id="paint0_linear" x1="100" y1="70" x2="1490" y2="930" gradientUnits="userSpaceOnUse">
      <stop stop-color="#59FF62"/>
      <stop offset="1" stop-color="#32D9FF"/>
    </linearGradient>
  </defs>
</svg>
